<svg width="24" height="24" viewBox="0 0 24 24" fill="none" xmlns="http://www.w3.org/2000/svg">
<path fill-rule="evenodd" clip-rule="evenodd" d="M19.496 11.9539C19.529 12.2281 19.3334 12.4771 19.0593 12.51L18.9996 12.0136L18.9399 11.5172C19.2141 11.4842 19.4631 11.6798 19.496 11.9539ZM9.85352 12.8603C10.4232 12.8604 11.0109 12.868 11.606 12.8757C12.8303 12.8915 14.0859 12.9077 15.2811 12.8599C15.9388 12.8336 16.8876 12.7454 17.662 12.6651C18.0514 12.6247 18.4004 12.586 18.652 12.5574C18.7779 12.543 18.8795 12.5312 18.9497 12.523L19.0307 12.5134L19.0593 12.51L18.9996 12.0136L18.9399 11.5172L18.9127 11.5204L18.8332 11.5298C18.764 11.5379 18.6636 11.5496 18.539 11.5638C18.2897 11.5922 17.9442 11.6305 17.559 11.6704C16.7843 11.7507 15.8638 11.8358 15.2411 11.8607C14.0715 11.9075 12.8639 11.8918 11.6559 11.8761C11.05 11.8682 10.444 11.8603 9.8427 11.8603C9.83547 11.8603 9.82824 11.8605 9.82102 11.8608L6.17621 12.019C6.34314 11.8452 6.5252 11.6573 6.71113 11.467C7.06791 11.1018 7.43684 10.7295 7.73747 10.4319C8.04967 10.1229 8.26218 9.92063 8.3231 9.87189C8.48402 9.74316 8.82061 9.41054 9.2053 9.01953C9.60184 8.61648 10.0796 8.12013 10.5394 7.63843C10.9995 7.15645 11.4429 6.68785 11.7713 6.33984C11.9354 6.16581 12.0709 6.02186 12.1653 5.9214L12.3127 5.76449C12.5015 5.56303 12.492 5.24592 12.2905 5.05706C12.0891 4.8682 11.7726 4.87842 11.5838 5.07988L11.4367 5.23648C11.3426 5.33657 11.2076 5.48008 11.0439 5.65362C10.7164 6.00076 10.2744 6.46783 9.81608 6.94793C9.35749 7.42831 8.88378 7.92046 8.49246 8.3182C8.08929 8.72799 7.8016 9.00847 7.6984 9.09103C7.58581 9.1811 7.32791 9.43025 7.03396 9.72123C6.72845 10.0237 6.35548 10.4 5.99581 10.7682C5.63638 11.1361 5.28811 11.498 5.03245 11.7712C4.90531 11.907 4.79757 12.0246 4.72212 12.1112C4.68576 12.153 4.6498 12.1956 4.62192 12.2327C4.6105 12.2479 4.58641 12.2803 4.56487 12.3198C4.55699 12.3342 4.52811 12.3871 4.51217 12.4595C4.50429 12.4953 4.49007 12.5764 4.51199 12.6763C4.53549 12.7835 4.59987 12.902 4.71875 12.9831C6.17445 14.013 7.79521 15.655 9.06695 17.0616C9.70016 17.762 10.2404 18.3968 10.6222 18.8563C10.813 19.086 10.964 19.2717 11.0671 19.3996C11.1187 19.4636 11.1582 19.5131 11.1847 19.5464L11.2146 19.5841L11.222 19.5934L11.2237 19.5956C11.2237 19.5956 11.2237 19.5956 11.2237 19.5956C11.3943 19.8127 11.7091 19.851 11.9262 19.6804C12.1433 19.5098 12.1811 19.1955 12.0105 18.9783L11.6173 19.2873C12.0105 18.9783 12.0105 18.9784 12.0105 18.9783L12.0074 18.9745L11.9991 18.964L11.9674 18.924C11.9396 18.889 11.8987 18.8378 11.8458 18.7721C11.7399 18.6407 11.5857 18.4512 11.3913 18.2173C11.0029 17.7497 10.4534 17.104 9.80873 16.391C8.82317 15.3009 7.59984 14.036 6.38162 13.011L9.85352 12.8603Z" fill="#111519"/>
</svg>
