<svg width="25" height="24" viewBox="0 0 25 24" fill="none" xmlns="http://www.w3.org/2000/svg">
<path fill-rule="evenodd" clip-rule="evenodd" d="M20.863 4.04934C20.9602 4.15219 21.0093 4.29143 20.9981 4.43251C20.877 5.95302 20.6468 9.61844 20.69 12.1412C20.6966 12.5313 20.7049 12.9553 20.7137 13.3998C20.7614 15.8289 20.8211 18.8697 20.688 20.334C20.665 20.5869 20.4561 20.7824 20.2022 20.7886C19.0719 20.816 17.2825 20.805 15.6004 20.7928C15.4919 20.792 15.3839 20.7912 15.2765 20.7904C13.7095 20.7789 12.2848 20.7684 11.6031 20.7885C10.122 20.832 5.88209 20.8458 4.11652 20.666C3.86131 20.64 3.66718 20.4251 3.66718 20.1686L3.66718 17.5137C3.66492 17.1307 3.68987 16.5288 3.72025 15.7958C3.72849 15.597 3.73713 15.3886 3.74573 15.1723C3.78653 14.1467 3.82781 12.9203 3.82781 11.6326C3.82781 11.3412 3.82069 10.8864 3.81196 10.3289C3.78683 8.7237 3.74838 6.26748 3.82827 4.4112C3.84004 4.13769 4.06957 3.92451 4.3432 3.93293C6.05366 3.98561 9.9824 4.08433 12.0506 4.05972C14.1277 4.03501 18.54 3.93828 20.488 3.89296C20.6295 3.88967 20.7658 3.94649 20.863 4.04934ZM19.9594 4.90539C17.8244 4.95405 13.9678 5.03698 12.0625 5.05965C10.1529 5.08237 6.69726 5.00152 4.80925 4.94722C4.75536 6.69071 4.78845 8.80457 4.81138 10.2695C4.82038 10.8443 4.82781 11.3192 4.82781 11.6326C4.82781 12.9404 4.7859 14.1824 4.74494 15.2121C4.73593 15.4386 4.72702 15.6539 4.71863 15.8566C4.68849 16.5847 4.66499 17.1524 4.66717 17.5092L4.66719 17.5122L4.66718 19.7089C6.56048 19.8417 10.211 19.829 11.5737 19.7889C12.2749 19.7683 13.7159 19.7789 15.2674 19.7903C15.3803 19.7911 15.4938 19.792 15.6077 19.7928C17.0814 19.8035 18.6182 19.8131 19.7239 19.7974C19.8086 18.276 19.7572 15.6441 19.7142 13.441C19.7054 12.9912 19.697 12.5593 19.6901 12.1583C19.6508 9.85686 19.8334 6.64978 19.9594 4.90539ZM18.0281 8.51325C18.2262 8.70562 18.2309 9.02217 18.0385 9.22028C17.7466 9.52085 17.4663 9.86479 17.1718 10.2296C17.1571 10.2479 17.1423 10.2662 17.1275 10.2846C16.8515 10.6266 16.5618 10.9856 16.257 11.3095C15.6885 11.9135 15.1223 12.421 14.5116 12.9684C14.1335 13.3074 13.7384 13.6616 13.3152 14.0633C12.8583 14.4971 12.4233 14.8846 12.0265 15.2364C11.9967 15.2628 11.9671 15.289 11.9377 15.315C11.5743 15.6371 11.2484 15.9259 10.9612 16.1993C10.7948 16.3577 10.5417 16.3823 10.3479 16.2588C9.20555 15.5313 8.26828 14.5522 7.38537 13.6299C7.13135 13.3645 6.88182 13.1038 6.6332 12.8552C6.43794 12.66 6.43794 12.3434 6.6332 12.1481C6.82847 11.9529 7.14505 11.9529 7.34031 12.1481C7.62314 12.431 7.89461 12.7142 8.16199 12.9931C8.93826 13.803 9.6801 14.577 10.5657 15.2011C10.7873 14.9983 11.0244 14.7882 11.2711 14.5697C11.3016 14.5426 11.3323 14.5154 11.3631 14.4881C11.7593 14.1369 12.1832 13.7591 12.6267 13.3381C13.1007 12.8881 13.5125 12.5197 13.8933 12.179C14.4736 11.6599 14.9819 11.2052 15.5288 10.6241C15.8067 10.3289 16.0745 9.99703 16.3574 9.64644C16.3695 9.63149 16.3816 9.6165 16.3937 9.60149C16.6848 9.24092 16.9925 8.862 17.3211 8.52362C17.5135 8.32551 17.83 8.32087 18.0281 8.51325Z" fill="#111519"/>
</svg>
