<svg width="25" height="24" viewBox="0 0 25 24" fill="none" xmlns="http://www.w3.org/2000/svg">
<path fill-rule="evenodd" clip-rule="evenodd" d="M19.2761 3.63813L19.2788 3.63995L19.2853 3.64449L19.3095 3.66132C19.3302 3.67582 19.36 3.69675 19.3969 3.72294C19.4705 3.77526 19.5728 3.84891 19.6878 3.93455C19.9137 4.10261 20.2049 4.32869 20.4232 4.53361C20.6373 4.73455 20.8771 5.00508 21.056 5.21526C21.1472 5.32236 21.2259 5.41768 21.2818 5.48631C21.3098 5.52067 21.3322 5.54846 21.3477 5.56783L21.3658 5.59036L21.3706 5.59648L21.372 5.59818L20.9806 5.90931L21.3572 6.23822L21.2997 6.30387C21.2628 6.34592 21.2094 6.40667 21.1431 6.48173C21.0107 6.63179 20.8268 6.83924 20.6208 7.06874C20.2113 7.52495 19.7062 8.07796 19.3459 8.43818C18.7901 8.994 18.2058 9.62197 17.6127 10.2593L17.6119 10.2602C17.0219 10.8942 16.4234 11.5374 15.8492 12.1116C12.9376 15.0233 9.82584 18.0944 6.81312 20.9252C6.73557 20.998 6.63679 21.0443 6.53116 21.0571L6.52488 21.0579L6.50849 21.0598L6.4479 21.0668C6.39601 21.0726 6.3221 21.0806 6.233 21.0895C6.05538 21.1072 5.81478 21.1287 5.5668 21.1431C5.32205 21.1573 5.05609 21.1655 4.83274 21.1536C4.72271 21.1478 4.60499 21.1362 4.49836 21.112C4.44492 21.0999 4.3806 21.0815 4.31582 21.0518C4.25557 21.0242 4.16018 20.9711 4.08127 20.8718C3.97635 20.7397 3.93083 20.5841 3.90704 20.4767C3.88061 20.3573 3.86678 20.2276 3.85962 20.102C3.84525 19.8499 3.85516 19.5621 3.8726 19.3001C3.89024 19.0353 3.91655 18.7834 3.93827 18.5985C3.94917 18.5058 3.959 18.4292 3.96615 18.3755L3.9747 18.3128L3.9771 18.2958L3.97777 18.2911L3.97796 18.2898C3.97796 18.2898 3.97806 18.2891 4.47286 18.361L3.97796 18.2898C3.99329 18.1843 4.042 18.0859 4.1168 18.01C4.67021 17.4486 5.06161 16.9514 5.45829 16.4475C5.51079 16.3808 5.56338 16.314 5.61645 16.2469C6.07092 15.6723 6.5514 15.0899 7.27751 14.4463C8.22341 13.6078 9.1514 12.8162 10.0717 12.0312C11.3575 10.9343 12.6284 9.85018 13.9121 8.66914C14.3822 8.2367 14.9165 7.60706 15.4134 7.02156C15.5875 6.81639 15.757 6.61665 15.9175 6.43271C16.3967 5.88361 16.8435 5.45025 17.284 5.03149C17.336 4.982 17.3879 4.93278 17.4397 4.88362C17.828 4.51529 18.2121 4.15094 18.6277 3.7078C18.7968 3.52739 19.0725 3.49777 19.2761 3.63813ZM4.94655 18.5913C4.94196 18.6276 4.93684 18.6693 4.93143 18.7153C4.91093 18.8897 4.88655 19.1239 4.87039 19.3666C4.85405 19.612 4.84705 19.8529 4.858 20.0451C4.86032 20.0858 4.86333 20.1221 4.86682 20.1539C4.87297 20.1543 4.8793 20.1547 4.88582 20.155C5.0536 20.1639 5.27611 20.1583 5.50884 20.1448C5.73834 20.1315 5.9642 20.1114 6.13367 20.0944C6.17631 20.0902 6.21521 20.0861 6.24951 20.0825C9.21313 17.294 12.2719 14.2747 15.1421 11.4045C15.7015 10.8451 16.2877 10.2154 16.8806 9.57809L16.8871 9.57119C17.3482 9.07566 17.8134 8.57568 18.267 8.10866C18.2238 8.07012 18.1786 8.02982 18.1323 7.98853C17.8498 7.73636 17.5225 7.44272 17.3585 7.29049C17.277 7.21481 17.0758 7.01342 16.9054 6.84173C16.9032 6.83954 16.9011 6.83735 16.8989 6.83517C16.8236 6.91747 16.7477 7.0023 16.6709 7.09024C16.5326 7.24879 16.3786 7.43034 16.2148 7.62342C15.7087 8.21996 15.1093 8.92657 14.5892 9.40507C13.3023 10.589 11.9964 11.7035 10.6918 12.8169C9.77184 13.6019 8.8525 14.3865 7.94082 15.1946C7.28049 15.7799 6.84282 16.3084 6.40074 16.8673C6.34914 16.9325 6.29735 16.9983 6.24506 17.0648C5.87557 17.5344 5.48074 18.0362 4.94655 18.5913ZM17.5963 6.11829C17.6026 6.12458 17.6088 6.1309 17.6151 6.13723C17.793 6.31646 17.9763 6.49947 18.039 6.55769C18.1943 6.70191 18.5137 6.98854 18.7983 7.24252C18.8567 7.29469 18.9134 7.34528 18.9667 7.39273C19.2553 7.08797 19.5858 6.72475 19.8766 6.4008C20.0465 6.21145 20.2014 6.03718 20.3242 5.89835C20.3145 5.8869 20.3046 5.87528 20.2946 5.86351C20.1201 5.65854 19.9101 5.42351 19.7388 5.26274C19.5642 5.09878 19.3111 4.90068 19.0908 4.73679C19.0781 4.72728 19.0655 4.71793 19.053 4.70875C18.7299 5.0382 18.4232 5.32906 18.1273 5.60977C18.0755 5.65883 18.0241 5.70759 17.973 5.75619C17.8464 5.87654 17.7212 5.99632 17.5963 6.11829ZM20.9806 5.90931L21.3572 6.23822C21.5157 6.05669 21.5216 5.78713 21.372 5.59818L20.9806 5.90931Z" fill="#111519"/>
</svg>
