<svg width="24" height="24" viewBox="0 0 24 24" fill="none" xmlns="http://www.w3.org/2000/svg">
<path fill-rule="evenodd" clip-rule="evenodd" d="M6.75385 2.4472C7.02903 2.42421 7.27075 2.62865 7.29374 2.90383L7.40297 4.21114C7.70507 4.20191 8.13574 4.18969 8.65077 4.17769C9.68061 4.1537 11.0497 4.13053 12.4031 4.13403C13.5214 4.13692 14.6292 4.16658 15.5132 4.19541C15.8412 4.20611 16.1352 4.21655 16.387 4.22549C16.5073 4.22977 16.618 4.2337 16.7181 4.23715L16.6083 3.12769C16.5811 2.85289 16.7818 2.60807 17.0566 2.58087C17.3314 2.55367 17.5762 2.75439 17.6034 3.02919L17.7249 4.25593C18.1638 4.26278 18.6593 4.27752 19.0826 4.29212C19.3728 4.30213 19.631 4.31213 19.8166 4.31964L20.0357 4.32871L20.1156 4.33216C20.3733 4.34356 20.5804 4.54911 20.5932 4.80672C20.6809 6.55955 20.7214 7.45723 20.7214 9.23579C20.7214 9.95297 20.7582 11.1081 20.7954 12.2792C20.8324 13.4427 20.8698 14.6221 20.8698 15.3677C20.8698 16.4635 20.8408 17.4502 20.812 18.4283C20.7832 19.4076 20.7546 20.3784 20.7546 21.4529C20.7546 21.729 20.5307 21.9529 20.2546 21.9529C19.1953 21.9529 18.073 22.0265 16.9081 22.1029C16.822 22.1085 16.7356 22.1142 16.6491 22.1198C15.3988 22.2014 14.1063 22.2798 12.8363 22.2608C10.7722 22.2298 8.71854 22.2404 6.72565 22.2508C5.75104 22.2558 4.79096 22.2608 3.85128 22.2608C3.57514 22.2608 3.35128 22.037 3.35128 21.7608C3.35128 20.7394 3.2967 19.5822 3.24128 18.4128L3.24039 18.394C3.18555 17.2369 3.13016 16.0681 3.13016 15.037L3.13021 9.23579C3.13021 8.52817 3.18652 7.73753 3.24121 6.96951L3.24201 6.95836C3.2976 6.17776 3.35128 5.42052 3.35128 4.75196C3.35128 4.48019 3.56836 4.25819 3.84005 4.25209L3.89415 4.25096L4.05144 4.24803C4.18984 4.24561 4.39444 4.24239 4.66005 4.23917C5.08868 4.23398 5.67622 4.22879 6.40081 4.22698L6.29721 2.98709C6.27422 2.71191 6.47866 2.47019 6.75385 2.4472ZM6.96223 5.22599C6.95625 5.2262 6.95026 5.22631 6.94428 5.22631C5.97089 5.22631 5.19967 5.23271 4.67216 5.2391C4.5491 5.24059 4.43931 5.24208 4.34331 5.24349C4.3259 5.81598 4.28261 6.42388 4.24028 7.01824L4.23948 7.02939C4.19627 7.63613 4.15422 8.22875 4.13763 8.77659C5.93854 8.91612 7.1053 8.86739 8.48175 8.80989C9.3625 8.7731 10.3291 8.73273 11.6027 8.73579C13.1277 8.73946 15.2821 8.73947 17.0556 8.73855C17.9422 8.73809 18.7336 8.7374 19.3032 8.73682L19.7203 8.73637C19.7138 7.44326 19.6808 6.61033 19.6171 5.31249C19.4555 5.30617 19.2604 5.29885 19.0482 5.29153C18.4706 5.27161 17.7724 5.25196 17.2715 5.25196C17.1146 5.25196 16.7715 5.23979 16.3121 5.2235C16.065 5.21474 15.7842 5.20478 15.4806 5.19488C14.6006 5.16618 13.5041 5.13687 12.4006 5.13402C11.059 5.13056 9.69924 5.15353 8.67406 5.17742C8.1617 5.18936 7.73338 5.20151 7.43329 5.21068C7.28326 5.21526 7.1653 5.2191 7.08494 5.22178L6.96223 5.22599ZM19.7258 9.73636L19.3042 9.73682C18.7344 9.7374 17.943 9.73809 17.0561 9.73855C15.2825 9.73947 13.1269 9.73947 11.6003 9.73579C10.4199 9.73295 9.48039 9.77128 8.60352 9.80705C7.19631 9.86447 5.95053 9.91529 4.13021 9.77879L4.13016 15.037C4.13016 16.0444 4.18463 17.1937 4.24001 18.3622L4.24016 18.3654C4.2867 19.3474 4.33383 20.3427 4.34741 21.2604C5.11903 21.2591 5.90695 21.255 6.7066 21.2508C8.70537 21.2405 10.7774 21.2297 12.8513 21.2609C14.076 21.2793 15.3313 21.2037 16.5839 21.122C16.6728 21.1162 16.7616 21.1103 16.8504 21.1045C17.8327 21.0401 18.8133 20.9757 19.7565 20.9578C19.7635 20.0616 19.7879 19.2307 19.8123 18.4045L19.8124 18.3989C19.8413 17.4195 19.8698 16.4467 19.8698 15.3677C19.8698 14.642 19.8331 13.4824 19.7959 12.3113L19.7953 12.2917C19.766 11.3715 19.7366 10.4456 19.7258 9.73636ZM7.30833 12.2436C7.85903 11.8989 8.57574 11.7262 9.25387 11.8415C10.1943 12.0014 10.7332 12.7498 10.9751 13.5045C11.2165 14.258 11.21 15.14 10.9666 15.8091C10.8396 16.1585 10.5775 16.3878 10.2984 16.5287C10.024 16.6673 9.71101 16.7335 9.41493 16.7574C8.83443 16.8044 8.18325 16.6986 7.76066 16.4873C7.21084 16.2124 6.81269 15.8866 6.57347 15.4189C6.34325 14.9688 6.29549 14.4517 6.29549 13.8811C6.29549 13.1561 6.76247 12.5854 7.30833 12.2436ZM7.83895 13.0912C7.47027 13.322 7.29549 13.6173 7.29549 13.8811C7.29549 14.4205 7.34711 14.7354 7.46378 14.9635C7.57145 15.1741 7.76769 15.3727 8.20787 15.5928C8.43237 15.7051 8.89266 15.7964 9.33424 15.7607C9.54921 15.7433 9.72493 15.6981 9.84764 15.6361C9.96566 15.5765 10.0091 15.5161 10.0269 15.4674C10.1876 15.0254 10.203 14.372 10.0228 13.8096C9.84294 13.2484 9.51648 12.9005 9.08627 12.8273C8.67337 12.7572 8.20279 12.8635 7.83895 13.0912Z" fill="#111519"/>
</svg>
